<?xml version="1.0" encoding="UTF-8"?> <svg xmlns="http://www.w3.org/2000/svg" xmlns:xlink="http://www.w3.org/1999/xlink" width="200px" height="200px" viewBox="0 0 200 200" version="1.1"><title>desktop / glyphs / icon / room service</title><g id="desktop-/-glyphs-/-icon-/-room-service" stroke="none" stroke-width="1" fill="none" fill-rule="evenodd"><g id="room_service_32dp_1F1F1F_FILL0_wght400_GRAD0_opsz40" transform="translate(33.000000, 50.000000)" fill="#1F1F1F" fill-rule="nonzero"><path d="M0,100 L0,88.8883333 L133.333333,88.8883333 L133.333333,100 L0,100 Z M5.555,80 L5.555,75.8883333 C5.555,59.6661111 10.2866667,46.2216667 19.75,35.555 C29.2133333,24.8883333 41.1483333,18.0366667 55.555,15 L55.555,11.1116667 C55.555,7.96277778 56.62,5.32388889 58.75,3.195 C60.88,1.065 63.5188889,0 66.6666667,0 C69.8144444,0 72.4533333,1.065 74.5833333,3.195 C76.7133333,5.32388889 77.7783333,7.96277778 77.7783333,11.1116667 L77.7783333,15 C92.2227778,18.0366667 104.167222,24.8883333 113.611667,35.555 C123.056111,46.2216667 127.778333,59.6661111 127.778333,75.8883333 L127.778333,80 L5.555,80 Z M17.1116667,68.8883333 L116.221667,68.8883333 C114.666111,55.555 109.147778,44.9438889 99.6666667,37.055 C90.1855556,29.1661111 79.1483333,25.2216667 66.555,25.2216667 C53.9627778,25.2216667 42.9722222,29.1661111 33.5833333,37.055 C24.1944444,44.9438889 18.7038889,55.555 17.1116667,68.8883333 L17.1116667,68.8883333 Z" id="Shape"></path></g></g></svg> 