<?xml version="1.0" encoding="UTF-8"?> <svg xmlns="http://www.w3.org/2000/svg" xmlns:xlink="http://www.w3.org/1999/xlink" width="200px" height="200px" viewBox="0 0 200 200" version="1.1"><title>desktop / glyphs / icon / servizio completo</title><g id="desktop-/-glyphs-/-icon-/-servizio-completo" stroke="none" stroke-width="1" fill="none" fill-rule="evenodd"><g id="restaurant_32dp_1F1F1F_FILL0_wght400_GRAD0_opsz40" transform="translate(63.000000, 50.000000)" fill="#1F1F1F" fill-rule="nonzero"><path d="M15.3663592,100 L15.3663592,54.08375 C11.0752913,53.08375 7.44125674,50.8475 4.46425566,47.375 C1.48808522,43.9025 0,39.7775 0,35 L0,0 L8.30677994,0 L8.30677994,35 L15.3663592,35 L15.3663592,0 L23.6731392,0 L23.6731392,35 L30.7339644,35 L30.7339644,0 L39.0394984,0 L39.0394984,35 C39.0394984,39.7775 37.5514132,43.9025 34.5752427,47.375 C31.5990723,50.8475 27.9650378,53.08375 23.6731392,54.08375 L23.6731392,100 L15.3663592,100 Z M66.4505016,100 L66.4505016,60 L51.9151942,60 L51.9151942,22.91625 C51.9151942,16.2220833 54.0540831,10.7291667 58.3318608,6.4375 C62.6096386,2.14583333 68.0847789,0 74.7572816,0 L74.7572816,100 L66.4505016,100 L66.4505016,100 Z" id="Shape"></path></g></g></svg> 