<?xml version="1.0" encoding="UTF-8"?> <svg xmlns="http://www.w3.org/2000/svg" xmlns:xlink="http://www.w3.org/1999/xlink" width="200px" height="200px" viewBox="0 0 200 200" version="1.1"><title>desktop / glyphs / icon / servizio rapido</title><g id="desktop-/-glyphs-/-icon-/-servizio-rapido" stroke="none" stroke-width="1" fill="none" fill-rule="evenodd"><g id="lunch_dining_32dp_1F1F1F_FILL0_wght400_GRAD0_opsz40" transform="translate(44.000000, 50.000000)" fill="#1F1F1F" fill-rule="nonzero"><path d="M9.25972222,100 C6.71342593,100 4.53333333,99.0935185 2.71944444,97.2805556 C0.906481481,95.4666667 0,93.2865741 0,90.7402778 L0,73.3333333 L111.111111,73.3333333 L111.111111,90.7402778 C111.111111,93.2865741 110.20463,95.4666667 108.391667,97.2805556 C106.577778,99.0935185 104.397685,100 101.851389,100 L9.25972222,100 Z M9.25972222,82.5930556 L9.25972222,90.7402778 L101.851389,90.7402778 L101.851389,82.5930556 L9.25972222,82.5930556 Z M55.5555556,57.7777778 C51.9138889,57.7777778 49.1671296,58.7652778 47.3152778,60.7402778 C45.4634259,62.7162037 42.0064815,63.7041667 36.9444444,63.7041667 C31.8824074,63.7041667 28.5027778,62.7162037 26.8055556,60.7402778 C25.1083333,58.7652778 22.4384259,57.7777778 18.7958333,57.7777778 C15.1541667,57.7777778 12.3810185,58.7652778 10.4763889,60.7402778 C8.57175926,62.7162037 5.07962963,63.7041667 0,63.7041667 L0,54.4444444 C3.14814815,54.4444444 5.80231481,53.4569444 7.9625,51.4819444 C10.1236111,49.5060185 13.7347222,48.5180556 18.7958333,48.5180556 C23.8578704,48.5180556 27.2375,49.5060185 28.9347222,51.4819444 C30.6328704,53.4569444 33.3027778,54.4444444 36.9444444,54.4444444 C40.5861111,54.4444444 43.3328704,53.4569444 45.1847222,51.4819444 C47.0365741,49.5060185 50.4935185,48.5180556 55.5555556,48.5180556 C60.6175926,48.5180556 64.074537,49.5060185 65.9263889,51.4819444 C67.7782407,53.4569444 70.525,54.4444444 74.1666667,54.4444444 C77.8083333,54.4444444 80.4782407,53.4569444 82.1763889,51.4819444 C83.8736111,49.5060185 87.2532407,48.5180556 92.3152778,48.5180556 C97.3763889,48.5180556 101.018056,49.5060185 103.240278,51.4819444 C105.4625,53.4569444 108.086111,54.4444444 111.111111,54.4444444 L111.111111,63.7041667 C106.049074,63.7041667 102.59213,62.7162037 100.740278,60.7402778 C98.8884259,58.7652778 96.1416667,57.7777778 92.5,57.7777778 C88.8583333,57.7777778 86.1578704,58.7652778 84.3986111,60.7402778 C82.6393519,62.7162037 79.2287037,63.7041667 74.1666667,63.7041667 C69.1046296,63.7041667 65.6476852,62.7162037 63.7958333,60.7402778 C61.9439815,58.7652778 59.1972222,57.7777778 55.5555556,57.7777778 Z M0,39.0736111 L0,33.5180556 C0,23.2402778 4.91527778,15.0847222 14.7458333,9.05138889 C24.575463,3.01712963 38.1787037,0 55.5555556,0 C72.9324074,0 86.5356481,3.01712963 96.3652778,9.05138889 C106.195833,15.0847222 111.111111,23.2402778 111.111111,33.5180556 L111.111111,39.0736111 L0,39.0736111 Z M55.5555556,9.25972222 C42.5925926,9.25972222 31.9060185,11.1731481 23.4958333,15 C15.0847222,18.8268519 10.4935185,23.7652778 9.72222222,29.8152778 L101.388889,29.8152778 C100.493519,23.7652778 95.8717593,18.8268519 87.5236111,15 C79.174537,11.1731481 68.5185185,9.25972222 55.5555556,9.25972222 L55.5555556,9.25972222 Z" id="Shape"></path></g></g></svg> 